<svg width="50" height="50" viewBox="0 0 50 50" fill="none" xmlns="http://www.w3.org/2000/svg">
<path d="M12.5 10V2.5C12.5 1.83696 12.7634 1.20107 13.2322 0.732233C13.7011 0.263392 14.337 0 15 0H35C35.663 0 36.2989 0.263392 36.7678 0.732233C37.2366 1.20107 37.5 1.83696 37.5 2.5V10H47.5C48.163 10 48.7989 10.2634 49.2678 10.7322C49.7366 11.2011 50 11.837 50 12.5V47.5C50 48.163 49.7366 48.7989 49.2678 49.2678C48.7989 49.7366 48.163 50 47.5 50H2.5C1.83696 50 1.20107 49.7366 0.732233 49.2678C0.263392 48.7989 0 48.163 0 47.5V12.5C0 11.837 0.263392 11.2011 0.732233 10.7322C1.20107 10.2634 1.83696 10 2.5 10H12.5ZM17.5 30H5V45H45V30H32.5V37.5H17.5V30ZM45 15H5V25H17.5V20H32.5V25H45V15ZM22.5 25V32.5H27.5V25H22.5ZM17.5 5V10H32.5V5H17.5Z" fill="#34C759" fill-opacity="0.75"/>
</svg>
