<svg width="48" height="50" viewBox="0 0 48 50" fill="none" xmlns="http://www.w3.org/2000/svg">
<path d="M14.4 11.9048V21.4262H21.6V11.9048H26.4V21.4262H33.6V11.9048H38.4V21.4262L40.8 21.4286C42.6365 21.4285 44.4036 22.1246 45.7398 23.3745C47.076 24.6244 47.8803 26.3336 47.988 28.1524L48 28.5714V30.9524C48 33.3667 47.0952 35.5714 45.6024 37.25L45.6 47.619C45.6 48.2505 45.3471 48.8561 44.8971 49.3026C44.447 49.7492 43.8365 50 43.2 50H4.8C4.16348 50 3.55303 49.7492 3.10294 49.3026C2.65286 48.8561 2.4 48.2505 2.4 47.619V37.2381C1.1104 35.7804 0.296974 33.9689 0.0672003 32.0429L0.0144001 31.4405L1.11851e-08 30.9524V28.5714C-0.000102292 26.7495 0.70158 24.9964 1.96148 23.6708C3.22138 22.3452 4.94426 21.5474 6.7776 21.4405L7.2 21.4286L9.6 21.4262V11.9048H14.4ZM16.8048 37.2405L16.6752 37.3905C15.102 39.0945 12.9572 40.1719 10.6416 40.4214L10.0896 40.4643L9.6 40.4762C8.772 40.4762 7.968 40.3714 7.2 40.1762V45.2381H40.8V40.1762C39.2289 40.5769 37.5811 40.5768 36.01 40.1759C34.439 39.775 32.9957 38.9863 31.8144 37.8833L31.4544 37.5262L31.2 37.2476L30.9432 37.5286C29.3869 39.1495 27.3036 40.1732 25.0608 40.419L24.48 40.4667L24 40.4762C21.4883 40.4798 19.0764 39.5012 17.2872 37.7524L16.9272 37.3786L16.8048 37.2405ZM40.8 26.1905H7.2C6.61216 26.1906 6.04479 26.4047 5.60551 26.7922C5.16622 27.1797 4.88558 27.7137 4.8168 28.2929L4.8 28.5714V30.8833L4.8072 31.2333C4.87943 32.4457 5.41587 33.5849 6.3068 34.4179C7.19772 35.2508 8.37579 35.7146 9.6 35.7143C10.7495 35.7163 11.8615 35.3088 12.7336 34.5659C13.6058 33.823 14.1801 32.7942 14.352 31.6667L14.388 31.3024L14.4 30.8833C14.4864 27.9119 18.7848 27.8048 19.1736 30.5643L19.1976 30.8833L19.2072 31.2333C19.2743 32.4427 19.8035 33.5813 20.6869 34.4173C21.5704 35.2533 22.7418 35.7239 23.9627 35.7333C25.1835 35.7427 26.3621 35.2902 27.2586 34.4679C28.155 33.6456 28.7019 32.5154 28.788 31.3071L28.8168 30.6357C29.1144 27.8833 33.2856 27.8833 33.5832 30.6357L33.612 31.3071C33.6978 32.5088 34.2395 33.6336 35.128 34.4548C36.0165 35.2759 37.1857 35.7325 38.4 35.7325C39.6143 35.7325 40.7835 35.2759 41.672 34.4548C42.5605 33.6336 43.1022 32.5088 43.188 31.3071L43.2 30.9524V28.5714C43.1999 27.9883 42.9841 27.4254 42.5935 26.9896C42.2029 26.5538 41.6646 26.2754 41.0808 26.2071L40.8 26.1905ZM12 0C15.168 2.07381 15.9912 4.97143 15.4776 6.87619C15.2306 7.79119 14.6274 8.57138 13.8006 9.04513C12.9738 9.51888 11.9911 9.64739 11.0688 9.40238C10.1465 9.15737 9.36005 8.55892 8.88251 7.73867C8.40497 6.91842 8.27543 5.94357 8.5224 5.02857C9.24 2.38571 12 3.57143 12 0ZM24 0C27.168 2.07381 27.9912 4.97143 27.4776 6.87619C27.2306 7.79119 26.6274 8.57138 25.8006 9.04513C24.9738 9.51888 23.9911 9.64739 23.0688 9.40238C22.1465 9.15737 21.3601 8.55892 20.8825 7.73867C20.405 6.91842 20.2754 5.94357 20.5224 5.02857C21.24 2.38571 24 3.57143 24 0ZM36 0C39.168 2.07381 39.9912 4.97143 39.4776 6.87619C39.2306 7.79119 38.6274 8.57138 37.8006 9.04513C36.9738 9.51888 35.9911 9.64739 35.0688 9.40238C34.1465 9.15737 33.3601 8.55892 32.8825 7.73867C32.405 6.91842 32.2754 5.94357 32.5224 5.02857C33.24 2.38571 36 3.57143 36 0Z" fill="#34C759" fill-opacity="0.75"/>
</svg>
