<svg width="55" height="50" viewBox="0 0 55 50" fill="none" xmlns="http://www.w3.org/2000/svg">
<path d="M28.847 0C30.6993 5.25032 34.336 9.67827 39.1186 12.5065C43.9012 15.3347 49.524 16.3825 55 15.4658C54.7896 17.9695 53.7911 20.3413 52.1487 22.2382C50.5063 24.1352 48.3052 25.459 45.8635 26.0184V44.7342L51.1098 44.7368V50H3.89278V44.7368H9.13912V26.0184C6.6973 25.4588 4.49603 24.1349 2.85327 22.238C1.21051 20.3412 0.211307 17.9696 0 15.4658C5.47644 16.384 11.1003 15.3372 15.8839 12.5094C20.6676 9.68161 24.3053 5.25349 26.1583 0.00263202H28.847V0ZM40.6172 26.3132H14.3855V44.7342H40.6172V26.3132ZM27.5013 8.75263L27.2128 9.16053C23.08 14.8408 17.0292 18.8196 10.1884 20.3553L9.2493 20.5474L11.0147 21.0474H43.9958L45.7481 20.5474L45.7192 20.5421C38.5184 19.1677 32.108 15.098 27.7872 9.1579L27.5013 8.75V8.75263Z" fill="#34C759" fill-opacity="0.75"/>
</svg>
